# xmcd
#
# Track frame offsets:
#	150
#	20008
#	39203
#	54232
#	67330
#	80010
#	100197
#	117711
#	129415
#	144050
#	163778
#	180017
#
# Disc length: 2700 seconds
#
# Revision: 1
# Processed by: cddbd v1.5.1PL2 Copyright (c) Steve Scherf et al.
# Submitted via: audiograbber 1.83.01
#
DISCID=9a0a8a0c
DTITLE=Various Artist - Nashville Undergound Sampler Series Volume IV
DYEAR=2006
DGENRE=Country
TTITLE0=Jeffrey Steele - These Days
TTITLE1=Jeffrey Steele - Freewheelin'
TTITLE2=Rivers Rurtherford - Real Good Man
TTITLE3=Rivers Rutherford - Outside The Box
TTITLE4=Al Anderson - Should've Asked Her Faster
TTITLE5=Al Anderson - Trip Around The Sun
TTITLE6=Marshall Chapman - Betty's bein' Bad
TTITLE7=Marshall Chapman - I Love Everybody (I Love Everything)
TTITLE8=Danny Flowers - Tulsa Time
TTITLE9=Danny Flowers - I Was A Burden
TTITLE10=Darrell Scott - Long Time Gone
TTITLE11=Darrell Scott - River Take Me
EXTD=
EXTT0=
EXTT1=
EXTT2=
EXTT3=
EXTT4=
EXTT5=
EXTT6=
EXTT7=
EXTT8=
EXTT9=
EXTT10=
EXTT11=
PLAYORDER=
